<?xml version="1.0" encoding="iso-8859-1"?>
<!-- Generator: Adobe Illustrator 19.0.0, SVG Export Plug-In . SVG Version: 6.00 Build 0)  -->
<svg version="1.1" id="Layer_1" xmlns="http://www.w3.org/2000/svg" xmlns:xlink="http://www.w3.org/1999/xlink" x="0px" y="0px"
	 viewBox="0 0 511.99 511.99" style="enable-background:new 0 0 511.99 511.99;" xml:space="preserve">
<g>
	<rect x="85.333" style="fill:#F6BB42;" width="85.33" height="511.99"/>
	<rect x="213.333" style="fill:#F6BB42;" width="85.32" height="511.99"/>
	<rect x="341.343" style="fill:#F6BB42;" width="85.31" height="511.99"/>
</g>
<g>
	<rect x="21.337" style="fill:#FFCE54;" width="85.33" height="511.99"/>
	<rect x="149.333" style="fill:#FFCE54;" width="85.33" height="511.99"/>
	<rect x="277.343" style="fill:#FFCE54;" width="85.31" height="511.99"/>
	<rect x="405.343" style="fill:#FFCE54;" width="85.31" height="511.99"/>
</g>
<rect x="156.073" y="137.796" style="fill:#F5F7FA;" width="197.33" height="233.84"/>
<path style="fill:#434A54;" d="M128.007,106.67v298.667h255.988V106.67H128.007z M160.006,373.338V138.669h191.989v234.668H160.006
	V373.338z"/>
<path style="fill:#A0D468;" d="M301.965,186.747c0,0-58.991-6.859-91.788,42.562c-27.062,40.812,15.547,72.375,15.547,72.375
	s45.656,26.982,72.741-13.812C331.245,238.449,301.965,186.763,301.965,186.747z"/>
<path style="fill:#8CC153;" d="M214.552,331.885c-2.031,0-4.078-0.578-5.891-1.781c-4.906-3.266-6.25-9.875-3-14.797l41.515-62.561
	c3.25-4.906,9.875-6.25,14.781-2.984c4.906,3.25,6.25,9.875,3,14.782l-41.515,62.561
	C221.396,330.197,218.005,331.885,214.552,331.885z"/>
<g>
</g>
<g>
</g>
<g>
</g>
<g>
</g>
<g>
</g>
<g>
</g>
<g>
</g>
<g>
</g>
<g>
</g>
<g>
</g>
<g>
</g>
<g>
</g>
<g>
</g>
<g>
</g>
<g>
</g>
</svg>
